<svg width="22" height="27" viewBox="0 0 22 27" fill="none" xmlns="http://www.w3.org/2000/svg">
<path d="M12.457 26.7305C12.3086 26.7305 12.1797 26.6797 12.0703 26.5781C11.9688 26.4844 11.9062 26.3555 11.8828 26.1914C11.7031 24.9102 11.5078 23.832 11.2969 22.957C11.0938 22.0898 10.8203 21.375 10.4766 20.8125C10.1328 20.25 9.67969 19.8008 9.11719 19.4648C8.5625 19.1289 7.85156 18.8594 6.98438 18.6562C6.125 18.4453 5.0625 18.2578 3.79688 18.0938C3.625 18.0781 3.48828 18.0156 3.38672 17.9062C3.28516 17.7969 3.23438 17.6641 3.23438 17.5078C3.23438 17.3594 3.28516 17.2305 3.38672 17.1211C3.48828 17.0117 3.625 16.9492 3.79688 16.9336C5.0625 16.793 6.12891 16.625 6.99609 16.4297C7.86328 16.2344 8.57812 15.9648 9.14062 15.6211C9.70312 15.2773 10.1562 14.8203 10.5 14.25C10.8438 13.6797 11.1172 12.957 11.3203 12.082C11.5312 11.1992 11.7188 10.1133 11.8828 8.82422C11.9062 8.66797 11.9688 8.54297 12.0703 8.44922C12.1797 8.34766 12.3086 8.29688 12.457 8.29688C12.6133 8.29688 12.7422 8.34766 12.8438 8.44922C12.9453 8.54297 13.0117 8.66797 13.043 8.82422C13.207 10.1133 13.3906 11.1992 13.5938 12.082C13.8047 12.957 14.0781 13.6797 14.4141 14.25C14.7578 14.8203 15.2109 15.2773 15.7734 15.6211C16.3359 15.9648 17.0508 16.2344 17.918 16.4297C18.7852 16.625 19.8555 16.793 21.1289 16.9336C21.293 16.9492 21.4258 17.0117 21.5273 17.1211C21.6289 17.2305 21.6797 17.3594 21.6797 17.5078C21.6797 17.6641 21.6289 17.7969 21.5273 17.9062C21.4258 18.0156 21.293 18.0781 21.1289 18.0938C19.8555 18.2344 18.7852 18.4023 17.918 18.5977C17.0508 18.793 16.3359 19.0625 15.7734 19.4062C15.2109 19.7422 14.7578 20.1953 14.4141 20.7656C14.0781 21.3359 13.8047 22.0625 13.5938 22.9453C13.3906 23.8281 13.207 24.9102 13.043 26.1914C13.0117 26.3555 12.9453 26.4844 12.8438 26.5781C12.7422 26.6797 12.6133 26.7305 12.457 26.7305ZM4.51172 13.7695C4.27734 13.7695 4.14453 13.6406 4.11328 13.3828C4.01953 12.6016 3.91797 11.9883 3.80859 11.543C3.70703 11.0977 3.53906 10.7656 3.30469 10.5469C3.07812 10.3203 2.73438 10.1484 2.27344 10.0312C1.82031 9.91406 1.19531 9.78906 0.398438 9.65625C0.132812 9.61719 0 9.48438 0 9.25781C0 9.03906 0.117188 8.91016 0.351562 8.87109C1.15625 8.71484 1.78906 8.57812 2.25 8.46094C2.71094 8.33594 3.05859 8.16406 3.29297 7.94531C3.52734 7.72656 3.69922 7.40234 3.80859 6.97266C3.91797 6.53516 4.01953 5.92578 4.11328 5.14453C4.14453 4.88672 4.27734 4.75781 4.51172 4.75781C4.74609 4.75781 4.87891 4.88281 4.91016 5.13281C5.01172 5.92187 5.11328 6.54297 5.21484 6.99609C5.32422 7.44922 5.49219 7.79297 5.71875 8.02734C5.95312 8.25391 6.30078 8.42188 6.76172 8.53125C7.22266 8.64062 7.85938 8.75391 8.67188 8.87109C8.77344 8.87891 8.85547 8.91797 8.91797 8.98828C8.98828 9.05859 9.02344 9.14844 9.02344 9.25781C9.02344 9.47656 8.90625 9.60938 8.67188 9.65625C7.85938 9.8125 7.22266 9.95312 6.76172 10.0781C6.30859 10.1953 5.96484 10.3672 5.73047 10.5938C5.50391 10.8125 5.33594 11.1406 5.22656 11.5781C5.11719 12.0156 5.01172 12.625 4.91016 13.4062C4.89453 13.5078 4.85156 13.5938 4.78125 13.6641C4.71094 13.7344 4.62109 13.7695 4.51172 13.7695ZM10.1836 5.70703C10.0352 5.70703 9.94922 5.62891 9.92578 5.47266C9.83203 4.99609 9.75 4.62109 9.67969 4.34766C9.61719 4.07422 9.51562 3.86719 9.375 3.72656C9.24219 3.57812 9.03516 3.46094 8.75391 3.375C8.47266 3.28906 8.07812 3.20312 7.57031 3.11719C7.41406 3.08594 7.33594 2.99609 7.33594 2.84766C7.33594 2.70703 7.41406 2.62109 7.57031 2.58984C8.07812 2.49609 8.47266 2.41016 8.75391 2.33203C9.03516 2.24609 9.24219 2.13281 9.375 1.99219C9.51562 1.84375 9.61719 1.63281 9.67969 1.35938C9.75 1.08594 9.83203 0.710938 9.92578 0.234375C9.94922 0.078125 10.0352 0 10.1836 0C10.3242 0 10.4102 0.078125 10.4414 0.234375C10.5273 0.710938 10.6055 1.08594 10.6758 1.35938C10.7461 1.63281 10.8477 1.84375 10.9805 1.99219C11.1211 2.13281 11.332 2.24609 11.6133 2.33203C11.8945 2.41016 12.2891 2.49609 12.7969 2.58984C12.9531 2.62109 13.0312 2.70703 13.0312 2.84766C13.0312 2.99609 12.9531 3.08594 12.7969 3.11719C12.2891 3.20312 11.8945 3.28906 11.6133 3.375C11.332 3.46094 11.1211 3.57812 10.9805 3.72656C10.8477 3.86719 10.7461 4.07422 10.6758 4.34766C10.6055 4.62109 10.5273 4.99609 10.4414 5.47266C10.4102 5.62891 10.3242 5.70703 10.1836 5.70703Z" fill="black"/>
</svg>
